<svg xmlns="http://www.w3.org/2000/svg" viewBox="0 0 400 300"><path d="M124.6 142.5c7.5 0 12.3 3.9 14.6 10.4h11.2c-2.7-12.4-12.6-20.2-25.8-20.2-15.7 0-27.6 12.2-27.6 28.3s11.9 27.9 27.6 27.9c13.2 0 22.8-8.2 25.8-20.2h-11.2c-2.3 6.2-7.2 10.4-14.6 10.4-10.3 0-16.8-7.4-16.8-18 .1-10.8 6.5-18.6 16.8-18.6zm46.2-3.7h-.5l-.6-5.3h-9.4V189h10.4v-35.2c0-7.4 5.7-11.5 13.2-11.5 1.6 0 2 .1 2 .1v-10.1s-.7-.2-2-.2c-3.2 0-9 1.4-13.1 6.7zm112-6.7c-9.3 0-15 4-17.4 6.6h-.5l-.6-5.3h-9.4V189h10.4v-35c0-7.8 7-11.9 15.6-11.9 7.4 0 12.7 3.7 12.7 11.4V189H304v-36.1c0-15.4-10.8-20.8-21.2-20.8zm34.7 1.4h10.4V189h-10.4v-55.5zm-100.8-.8c-15.8 0-27.9 12-27.9 28.1s11.9 28.1 27.9 28.1c15.8 0 27.9-12 27.9-28.1s-12.1-28.1-27.9-28.1zm0 46.1c-10.3 0-17-7.6-17-18s6.6-18.2 17-18.2 17 7.8 17 18.2c-.1 10.4-6.7 18-17 18zm144.9-23.5c-10.3-2.3-9.9-4.8-9.9-7.1 0-2.7 3-6.2 8.1-6.2 4.2 0 8.6 2.1 8.6 9.1h10.1c.4-11.4-7.1-18.3-18.7-18.3-10.2 0-18.5 7.1-18.5 15.8 0 11 8.7 14.4 18.2 16.5 10.1 2.2 10.9 5.3 10.9 7.5 0 4.2-4.3 7.8-10.2 7.8-4.3 0-10.8-2.7-10.8-10.7h-10.1c-.7 12.7 8.5 20 20.9 20 11.7 0 20.9-7.5 20.9-17.4-.2-11.4-10.2-15-19.5-17zM52.8 112.2L18.2 189h11.1l6.7-15.5h43.1l6.7 15.5h11l-34.4-76.8h-9.6zm4.6 13.1h.5l.6 1.4 9.8 22.4H47l9.8-22.4.6-1.4zm-17.5 39.5l3.2-7.2H72l3.2 7.2H39.9z" fill="#14234c"/></svg>