<svg xmlns="http://www.w3.org/2000/svg" viewBox="0 0 400 300"><path d="M353.9 161.9c2.3 0 4.1-2 4.1-4.4 0-2.4-1.9-4.4-4.1-4.4-2.3 0-4.1 1.9-4.1 4.4 0 2.5 1.8 4.4 4.1 4.4zm0-7.8c1.8 0 3.3 1.6 3.3 3.5s-1.5 3.5-3.3 3.5c-1.8 0-3.3-1.6-3.3-3.5 0-2 1.5-3.5 3.3-3.5zm-.7 4.2h.6c.2 0 .3 0 .4.1.2.1.3.2.3.3 0 .1.1.3.1.6s0 .5.1.6h1.1v-.1-.1-.5c0-.5-.1-.8-.4-1-.1-.1-.4-.2-.7-.3.3 0 .6-.1.8-.3.2-.2.3-.4.3-.8 0-.5-.2-.9-.6-1.1a2 2 0 00-.9-.2H352v4.5h1.2v-1.7zm0-2.2h.3c.3 0 .5 0 .7.1.2.1.4.3.4.5 0 .3-.1.4-.2.5-.2.1-.4.2-.7.2h-.5v-1.3zm-48.3 25.4c0-2.5 2.9-4.1 7-4.2 4 0 7.2 1.3 7.2 4.2 0 2.2-2 4.3-7.2 4.3-5.3 0-7-2.2-7-4.3zM105.4 89.6c8.4-6.6 16.7-6.3 20.5-.8 3.8 5.5 1.8 14-6.6 20.6-8.4 6.6-19.4 8.4-23.2 2.9-3.9-5.5.9-16.1 9.3-22.7zm26.5 78c0-2.5 1.9-4.5 4.3-4.5s4.3 2 4.3 4.5-1.9 4.5-4.3 4.5c-2.4.1-4.3-2-4.3-4.5zm130.1-4.5c0-2.4 1.8-4.3 4.1-4.3 2.2 0 4.1 1.9 4.1 4.3s-1.8 4.3-4.1 4.3c-2.2 0-4.1-1.9-4.1-4.3zM58.4 96.7C55.6 90.3 57 84.8 60.7 83c3.8-1.8 8.6.7 11.4 7.1 2.8 6.4 2.3 14-1.5 15.8-3.7 1.7-9.4-2.8-12.2-9.2zm245.2 98.5c.3-1.4.2-3.3-1.6-3.9-1.6-.5-3.2.1-3.9 2.2-.7 1.8-2.2 6.1-7.5 6.1 0 0-3.6.1-6.4-3.8v-.1c3.7-3.4 6.9-7.9 8-9.9 4.8-8.8 7.2-18 6-24.6-1.1-6.3-5.5-7.6-8.9-6.9-10.1 2-19.8 22.7-13.4 40.2-2.7 2.1-5.4 3-6.9 2.8-4.8-1-5.6-7.5-3.9-15.7l.1-.1c1.1-4.8 3.9-10.3-.7-11.1-1.3-.2-4.2-.5-6 5.2-1.3 4-.9 3-2.2 7-.4 1.1-.8 2.3-1.4 3.6-2.3 4.6-8 12.2-17.4 5.2a100 100 0 005.3-5.6c6.6-8.3 10.7-17.7 10.7-25 0-7-4.3-9.3-7.9-9.3-10.7 0-20.6 17-21.1 40.9-2.7 1.6-6 4.3-4.7 7.2 1.1 2.4 3.4 2 4.9 1.4.6 12 5.6 24.4 13.9 24.4 5.9 0 9.2-6.1 9.2-12.1 0-3.8-.8-8-2.5-11.5 4.7-.5 9.6-2.6 13.3-7.2.6 3.5 2.5 8.9 8.9 9.9 3 .5 7.1-.9 11.4-3.8 3 4 7.2 6.1 11.4 6.1h.2c8.9-.4 12.4-8.7 13.1-11.6zm-58.2-37c1.2 0 1.5 1.1 1.5 2.3 0 6.5-6.6 18.6-15.1 27.1 2.2-20.5 10.9-29.4 13.6-29.4zm-6.5 59.7c-4.2.5-7.9-9.7-7.8-20.7 0-.1.1-.3.1-.4.1-.1.2-.2.3-.2 1.4 1.8 3.9 3.5 6.9 4.4 2.8 6.7 4.9 16.1.5 16.9zm51.4-57.5c1.1-.1 1.5.7 1.7 1.9.9 5.4-3 18.5-10.5 27.3-2.8-12.8 5.3-28.7 8.8-29.2zm-77.1 25.4c-5.2 0-7-2.2-7-4.3 0-2.6 2.9-4.2 7-4.2 4 0 7.2 1.3 7.2 4.2 0 2.2-2 4.3-7.2 4.3zm-112.5-50.2c.1-1.8.1-3.5 0-5.2 5.7.6 13.7 6.4 13.7 9.5 0 2.8-5.1.7-15.5 8.4 1-4.1 1.6-8.4 1.8-12.7zm-22.9 1.2c-1.3-3.2 2-9 5.1-9.1 2.5 0 2.6 2.4 2.5 3.4-.1 4.5-5.2 9.9-7.6 5.7zm285 67.5c-3.5-.3-7.1-2.7-10.5-6.1 3.2-1.2 6.3-2.7 9.1-4.6 4.6-3.5.8-8.9-3.6-6.1-3.3 2.1-6.8 3.7-10.3 4.9-3.3-4.5-6.2-9.8-8.5-14.9 4-6.5 6.5-12.6 6.5-17.1 0-5.3-3-10.4-8.8-10.4-6 0-8.9 6.2-8.9 11.6 0 4.1 1.2 9.4 3.2 15-4.3 6.3-9.8 13.3-15.3 19.3-2.8-.2-4.6-.5-5-.5-5.5-.7-6.9 5.5-1.3 7.1-3.3 3.3-6.4 5.9-8.9 7.6-3.9 2.6-4.7 5.1-3.2 7.4 2.4 3.4 7.5-.6 7.5-.6 3.7-2.8 9-7.8 14.4-13.7 6.6.1 16-.4 25.3-2.6 5.2 6.3 11.1 10.6 16.7 10.9 7.8.6 7.5-6.7 1.6-7.2zM337 157.1c1.8 0 2 2.2 1.8 3.4-.1 2.1-1.2 5-3 8.3-1.9-6.7-1.9-11.7 1.2-11.7zm-11.5 39c3.2-3.8 6.2-7.7 9-11.6 1.7 3.4 3.6 6.8 5.7 10-5.3 1-10.3 1.5-14.7 1.6zm-118.6-.1c-3.4.3-4.2 8.1-11 8.5-4.7.3-6.8-5.6-6.8-5.6s13.2-6.1 13.1-19.3c-.2-3.8-2.1-9.8-9.1-9.8-3 0-6.4 2-8.3 4.1.7-3.6 1.3-8.2 1.6-14.4.2-4.1-2.6-4.4-3.7-4.4-.8 0-3.2.7-3.5 4.3-1.1 12.2-1.2 14-2.2 21.8-1.8 14.3-11.7 19.3-18.2 18.9-2.8-.2-7.1-1.7-7.1-9.2 0-8.1 5.1-14.1 7.8-13.7 1.9.3 2.9 2.3 1.2 5.1-1.4 2.4-2.8 5.7.7 7.1 4.2 1.4 7.3-4.7 7.4-10.4 0-4.4-2.7-9.6-9.5-9.9-7.1-.4-15.5 9.4-15.5 22.6 0 1.1.1 2.1.2 3.1-.5 3-3 6-5.5 6-2.7 0-5-4.1-4.7-9.2.3-5.3 1.9-8.9 2.6-11 1.4-4.4-.3-5.3-2.2-5.7-1.5-.3-4 .1-5.3 4.5-1.2 4-2.7 9.4-4 13.5-.8 2.5-1.9 5.3-3.3 7.3-1.2 1.4-2.5 2.3-3.8 2.3-4.4 0-.7-8.9-.7-15.1 0-1.7-1.4-4.9-5.7-4 4.8-7.3 7.3-13.5 7.1-19.9-.3-7-5.2-9-8.9-9-9.9.2-15.1 11.7-17 38.6-8.9 8.9-19.8 14.3-30.2 13.4-14.7-1.3-22.3-16.5-21.3-34.7 1.4-25.6 20.5-56.4 38.7-54.5 6.4.7 10.8 6.6 10.1 19.5-.8 15-11 36.8-21.8 36.1-5-.3-6.5-5.7-6.1-10.4.8-10.3 5.8-13.1 6.1-17.3.2-2.5-2.2-3.5-3.9-2.9-3 1-9 8.9-9.7 20-.9 13.7 7.6 17.9 12.7 18.2 14.9.9 29.5-21.2 30.7-44.3.8-15-5.4-24.7-17.1-26-22.7-2.6-46.6 28.9-47.9 62-.7 19.7 8.3 40.4 29.3 42 10 .7 20.6-3.5 29.8-11v4.3c.1 2.8 1 5.2 3.9 5.1 2.7-.1 3.5-2.2 3.4-4.7v-4.3c.6-12 6.3-13.8 8.6-13.3 3.2.7.6 3.7 1 12.4.2 6.2 5 7.8 7.2 7.8 5.2 0 9.7-4 12.4-9.9l.1-.1c2.3 6.1 6.2 8.2 9.3 8.2 3.6 0 7.1-2.8 9.3-5.9 3 3.9 7.3 5.6 10.5 5.8 6.6.3 12.2-2.9 16.3-7.1-.5 3.3-1.1 7.8-1.1 8.6 0 2 .9 3.4 2.7 3.6 3.1.4 5.3-1.8 6.2-12.4 0 0 4.3 10.5 13.9 10.5 9.6 0 13.8-9.7 13.8-12.7 0-1.3-.3-3.4-2.6-3.1zm-100.3-17.6c-1.7 2.6-3.9 5.5-6.6 8.7.1-1.3.3-2.6.4-3.8 2.1-17.2 5.3-23 9.4-22.3 1.3.3 1.9 1.7 1.9 2.9.4 3.9-1.2 8.5-5.1 14.5zm77.2 14.6c1.2-13.1 5-15.8 8-16 2.7 0 3.4 2.7 3.3 4.3-.6 6.3-9.2 11.4-11.3 11.7zM77.7 86.6c1.7-8.5 6.9-12.8 11.9-11.7 5 1.2 8 7.4 6.3 15.9-1.7 8.5-7.5 15.6-12.5 14.4-5-1.2-7.5-10.1-5.7-18.6zm-30.9 13.6c2-2.4 5.7-2.4 9.2.8 3.5 3.2 5.3 8.1 3.3 10.6-1.9 2.4-6.8 1.4-10.4-1.8-3.4-3.3-4-7.2-2.1-9.6z" fill="#e51636"/></svg>