<svg xmlns="http://www.w3.org/2000/svg" viewBox="0 0 400 300"><path d="M379.8 162.1c.2 5.4-3.8 7.6-6.3 7.2-2-.3-3.5-2.2-4.7-4-1.2-1.9-3.1-3-5.1-2.4-1.9.7-12.7 7.7-13.3 17.6-.4 7.3 0 30.2 0 30.2 0 3.5 1.3 4.8 2.9 5.7 1.5.9 7.2 1 8.8 1.2 1.6.2 1.6.6 1.6 1.1 0 .5 0 .7-1.4.7h-38c-1.2 0-1.7-.2-1.7-1 0-1 1.6-.8 2.8-1 1.2-.2 7.6.4 9.5-2.9 1.4-2.1 1.2-5.5 1.2-5.5l-.2-40.2c0-3.2-1-3.7-1.9-4.2-.9-.5-2.4-.8-5.5.3-3 1-5 1.9-5.6.7-.1-.7-.1-1.3 3.3-2.3 3.4-1 11.5-3.8 16.5-6.5 5-2.8 5.8-3.2 6.9-2.4 1.2.8.8 2.6.8 4v13.4c1.8-3 7.8-12.9 12.5-15.8 3.7-2.3 5-2.5 7.3-2.5 2.7 0 9.3 1.7 9.6 8.6zm-151.9 55.5c-4.3 0-7.6-.7-8.9-1.9-1.3-1.2-1.7-2.4-1.7-5.3v-52c0-1.7.1-3.7-1.1-4.1-1.2-.4-2.1-.1-7.6 3s-12.3 5.2-15.5 6c-2.8.7-3.8 1.4-3.3 2.4.7 1.3 4.5-.6 7.8-1.3 2.8-.7 5.2.7 5.2 3.8v41.2c0 1.8-.3 3.7-.9 5-1.6 3.5-8.4 3-9.9 3-1.8 0-2.3.4-2.3 1 0 .5.3 1 1.4 1h37.7c.8 0 1.4 0 1.4-.8.3-.7-.3-1-2.3-1zm-18.7-87.8c5.1 0 9.3-4.2 9.3-9.3 0-5.1-4.2-9.3-9.3-9.3-5.1 0-9.3 4.1-9.3 9.3 0 5.1 4.2 9.3 9.3 9.3zm101.7 48.3c5.2 25.1-12.1 38.5-27.1 41.8-14.7 3.2-39.6.9-44.1-26.1a35.12 35.12 0 0127.1-41.3c16.1-3.1 38.9.5 44.1 25.6zm-14.8 5.2c-1.5-19.4-11.1-29.1-24-27.9-13.3 1.2-19.4 16.4-17.5 33.3 1.9 16.9 11.9 30 24.4 27.8 12.3-2.2 18.6-14.1 17.1-33.2zm-115.9-32.4c0 32.7-21.7 68.8-66.9 68.8H22.5c-1.1 0-2.3-.2-2.3-1.3 0-1.3 1.6-1.5 3.2-1.5 17.6-.5 20.9-1.1 23-3.2 1.1-1.2 2.7-2.1 2.7-10.3V90.9c0-10.1-12.3-8.5-20.9-9.4-3-.3-3.3-.7-3.3-1.6 0-.9.6-1.3 2.2-1.4H98c78.2 0 82.2 57.2 82.2 72.4zm-24.5-2.2c0-7.9-2.1-27.6-14.3-44.3-12.2-16.7-32.6-21-50.4-21H76.5c-3.4 0-3.6 1.5-3.6 3.9v125.1c0 2.7 1 3.1 3.7 3.1h9.3c34.7 0 44-3.2 56.2-19.4 12.2-16.3 13.6-39.5 13.6-47.4z" fill="#211e1e"/></svg>