<svg xmlns="http://www.w3.org/2000/svg" viewBox="0 0 400 300"><path d="M14.6 77.8h370.7v144.5H14.6V77.8z" fill="#e60012"/><path d="M256.3 176.1h6.7v-30h-6.7v30zm-34.8-48.8l7.9 10.6h3.1V122h-3.2v10.5l-7.8-10.4h-3.2V138h3.2v-10.7zm35.8-5.3h-13.5v3.4h5.1v12.5h3.4v-12.5h5V122zm-20.7 45.8l-6.4-21.8h-5.3l-6.3 21.7-5.8-21.7h-6.5l8.5 30h7.2l5.6-19.8 5.6 19.8h7.2l8.5-30h-6.5l-5.8 21.8zm-134.9 45.8h19.6c18 0 32.6-14.6 32.6-32.6v-62c0-18-14.6-32.6-32.6-32.6h-19.7c-.5 0-.8.4-.8.8v125.5c0 .5.4.9.9.9zm24.2-70.1c7.1 0 12.9 5.8 12.9 12.9 0 7.1-5.8 12.9-12.9 12.9s-12.9-5.8-12.9-12.9a13 13 0 0112.9-12.9zm80.4-21.5h-3.5v15.9h3.5V122zm-26.6 5.3l7.9 10.6h3.1V122h-3.2v10.5l-7.8-10.4h-3.2V138h3.2v-10.7zm9.4 30.6h-.2c-3.7-.6-6.8-1.2-7.1-3.3 0-.3 0-1 .5-1.7 1-1.2 3.3-1.7 6.7-1.7 3.9 0 7.8 1.5 9.2 2.1l2.1-5.2c-1.5-.6-6.3-2.3-11.6-2.3-6.5 0-13.4 3.2-13.4 9 0 4.7 3.3 7.2 11.9 8.7 6.1 1 9.4 1.6 9.3 4.2-.1 1.4-1.2 3.8-8 3.8-5.5 0-9.4-2-10.7-2.8l-2.8 5.1c1.5.8 6.6 3.2 13.1 3.2 9.5 0 14.6-3.3 14.6-9.6.1-4.5-2.1-7.5-13.6-9.5zM46.5 124.6c0 6.6 5.4 12 12 12s12-5.4 12-12-5.4-12-12-12c-6.7 0-12 5.3-12 12zM281.3 135h-9.1v-3.7h8.4v-2.9h-8.4V125h9.1v-2.9h-12.4V138h12.4v-3zm74.4-13.5a8.5 8.5 0 108.5 8.5c-.1-4.7-3.9-8.5-8.5-8.5zm0 13.4a4.9 4.9 0 11.02-9.82 4.9 4.9 0 01-.02 9.82zm1 23h-14v-11.8h-6.2v30h6.2v-12h14v12h6.2v-30h-6.2v11.8zm8.7 15.1h1.3v3.1h.7V173h1.2v-.7h-3.2v.7zm6.9-.8l-1 2.8-1-2.8h-1.1v3.8h.7v-2.9l1 2.9h.7l1-2.9v2.9h.7v-3.8h-1zm-55.7-20.4c3.4 0 6.5 1.8 8.2 4.7l4.9-4.2c-3-4.4-7.9-7.1-13.3-7.1-8.8 0-16 7.2-16 16s7.2 16 16 16c5.4 0 10.3-2.6 13.3-7.1l-4.9-4.2a9.7 9.7 0 01-8.2 4.7c-5.2 0-9.5-4.2-9.5-9.3s4.2-9.5 9.5-9.5zm-46.3.6h9.6V176h6.5v-23.6h9.4V146h-25.4v6.4h-.1zm38.4-14.5V122h-3.2v10.5l-7.8-10.4h-3.2V138h3.2v-10.6l7.9 10.6h3.1v-.1zM87.1 86.4H59.3c-18 0-32.6 14.6-32.6 32.6v62c0 18 14.6 32.6 32.6 32.6h27.8c.5 0 .9-.4.9-.9V87.3c0-.5-.4-.9-.9-.9zm-9.3 117H59.3c-6 0-11.6-2.3-15.8-6.6-4.2-4.2-6.6-9.8-6.6-15.8v-62c0-6 2.3-11.6 6.6-15.8 4.2-4.2 9.8-6.6 15.8-6.6h18.5v106.8zM328.7 122h-6.6v15.9h6.6c4.5 0 8.2-3.6 8.2-7.9 0-4.4-3.7-8-8.2-8zm.2 12.6h-3.5v-9.2h3.5c2.5 0 4.6 2.1 4.6 4.6s-2.1 4.6-4.6 4.6z" fill="#fff"/></svg>