<svg xmlns="http://www.w3.org/2000/svg" viewBox="0 0 400 300"><path fill="#fff" d="M41.6 138.4h23.2L29 174.3h17.9L57 164.2l9.9 10.1h15.7v-12.7h-8.9l-7.1-7 16-16v-12.9H28.9v42.4l12.7-12.7z"/><path d="M157.6 157.3v-24.1H120v33.6h9.6v-9.5h6.1l8.9 9.5h13.2l-8.9-9.5h8.7zm-9.6-9.4h-18.4v-5.2H148v5.2zm54.9-14.7h9.5v33.6h-9.5v-33.6zm96 33.6h37.6v-33.6h-37.6v33.6zm9-24.2h19.7v14.7h-19.7v-14.7zm-91.7-9.4h37.5v33.6h-8.9v-24.2h-19.6v24.2h-8.9v-33.6zm-54.8 33.6h9.6v-9.5h18.4v9.5h9.6v-33.6h-37.6v33.6zm9.7-24.2h18.4v5.2h-18.4v-5.2zm96-19.3h-9.6v43.5h37.6v-33.6h-28v-9.9zm19.1 19.3v14.7h-19.7v-14.7h19.7zm106.3-9.4v33.6h-52.1v-33.6h9.5v24.2h11.9v-24.2h9.5v24.2H383v-24.2h9.5z"/><path d="M95.3 101.8H16.1a8.6 8.6 0 00-8.6 8.6v79.2c0 4.8 3.9 8.6 8.6 8.6h79.2c4.8 0 8.6-3.8 8.6-8.6v-79.2c0-4.8-3.8-8.6-8.6-8.6zm-12.7 36.8l-15.9 15.9 7.1 7h8.8v12.7H66.9l-9.9-10-10.1 10.1H29l35.9-35.8H41.6v17l-12.7 12.7v-42.3h53.6v12.7z" fill="red"/><path d="M105.5 193.6h3.7v.7h-1.4v3.8h-.8v-3.8h-1.4v-.7zm7.8 0l-1.2 3.5-1.2-3.5h-1.1v4.5h.8v-3.5l1.3 3.5h.7l1.3-3.5v3.5h.8v-4.5h-1.4z"/></svg>