<svg xmlns="http://www.w3.org/2000/svg" viewBox="0 0 400 300"><path d="M97.9 134.9H65.6l-1.2.9v28.8h9v-10.8l.9-.8H98c6 0 8.8-1.6 8.8-5.7v-6.6c-.1-4.2-2.9-5.8-8.9-5.8m0 10.6c0 1.9-1.3 2.4-4.1 2.4H74.3l-1-.9v-6.2l.9-.8h19.6c2.8 0 4.1.4 4.1 2.4v3.1zm25.2-5.2l7.7 11.3-.4 1.1h-17l-4.3 5.3h25.4l1.8 1.1 3.9 5.4h10.2l-22.5-30m97 24.2v-8l.9-.8H243v-5.1h-27.2v19.7h40.1v-5.1h-30m-10.1-24.5h40.5v5.6h-40.5v-5.6zm-45.2 5.3h32.6c-.5-4.1-3.1-5.3-9.6-5.3h-23.4c-7.4 0-9.7 1.4-9.7 7v15.6c0 5.6 2.3 7 9.7 7h23.4c6.6 0 9.2-1.2 9.3-5.5h-32.3l-1-.9v-17.3m-127 5.6H18.9l-.7-.8v-5.1l.7-.5h32l.4-1.1c-1.1-2.8-3.9-4.1-9.1-4.1H20c-7.4 0-9.7 1.4-9.7 7v3.3c0 5.6 2.4 7 9.7 7h23.7l.7.7v5.3l-.6.8H9.6s-.8.4-.8.6c.6 3.9 3.3 5 9.6 5h24.2c7.4 0 9.8-1.4 9.8-7v-4.1c0-5.5-2.4-7-9.8-7m239.1-11.7h-13.3l-.7 1.4 14.8 10.8c2.8-1.6 5.8-3.3 9.2-4.9m2 13.1l13 9.5h13.5l.6-1.3-19.4-14.2c-2.7 1.9-5.2 3.9-7.7 6" fill="#005288"/><path d="M279.8 164.5h-12l-1-1.6c8.2-7.9 44.8-41.8 124.5-45.5-.1.1-67 2.3-111.5 47.1" fill="#a7a9ac"/></svg>