<svg xmlns="http://www.w3.org/2000/svg" viewBox="0 0 400 300"><path d="M181.5 113l-25.62 5.69 2.14 12.1 24.19-4.98 2.14 9.96-24.2 4.98.71 4.27c1.43 5.7 3.56 6.4 8.54 5.7l19.22-4.28 2.13 9.97-19.92 4.27c-9.26 2.13-17.8-.72-19.93-12.1l-7.12-34.16c-.7-2.85.71-4.27 2.85-4.98l32.74-6.4 2.13 9.95zm-53.37 57.64c0-5.7-1.43-11.39-5.7-16.37l-20.64-24.9-8.53 6.4 18.5 22.77c3.55 4.27 4.98 7.12 4.27 10.67 0 2.85-2.14 6.4-4.98 8.54a31.77 31.77 0 01-8.54 4.27c-4.27 0-6.4-2.13-9.97-6.4l-18.5-22.77-8.54 6.4 20.64 24.9c4.27 4.99 9.25 7.84 14.94 8.55 6.4.71 12.1-1.42 17.8-5.7 5.69-4.98 8.53-9.96 9.25-16.36zM200 169.2c-38.43 0-71.87 16.37-95.36 43.41l6.4 5.7c22.07-24.91 53.38-40.57 88.96-40.57 35.58 0 66.9 15.66 88.95 40.57l6.4-5.7c-23.48-26.33-56.92-43.4-95.35-43.4zm-.71-87.53C138.8 81.68 85.43 106.6 47 146.44l5.7 5.7C90.4 113.7 142.35 90.22 200 90.22c57.64 0 110.3 23.49 147.3 61.91l5.7-5.69c-39.14-39.85-93.22-64.76-153.71-64.76zm46.25 37l19.22 5 2.13-9.97-19.92-4.98c-9.25-2.14-17.8 0-20.64 11.38l-8.54 33.45c-.71 2.85.71 4.27 2.85 4.98l6.4 1.42 5.7-21.35 24.2 6.41 2.84-9.96-24.2-6.4 1.43-4.99c1.42-5.7 3.55-6.4 8.53-4.98zM316 140.76c-2.14-2.14-4.27-1.42-5.7 0l-46.96 30.6 9.96 5.7 33.44-22.07-4.98 18.5-4.27-3.55-9.25 5.69 10.68 7.83-2.85 10.67 8.54 7.83 15.66-53.37c.7-2.14.7-3.56-1.43-5.7l-2.84-2.13z"/></svg>