<svg width="25" height="26" fill="none" xmlns="http://www.w3.org/2000/svg"><path fill-rule="evenodd" clip-rule="evenodd" d="M5.51 17.18L6.7 16c.38-.38.6-.88.6-1.41V9.9a4.73 4.73 0 015.35-4.68 4.85 4.85 0 014.08 4.9v4.46c0 .53.2 1.03.58 1.41l1.19 1.18H5.5zM14 19.52c0 .9-.92 1.66-2 1.66s-2-.76-2-1.66v-.34h4v.34zm6.52-3.13l-1.8-1.8v-4.47c0-3.48-2.5-6.44-5.82-6.88a6.72 6.72 0 00-7.62 6.67v4.68l-1.8 1.8a1.63 1.63 0 001.16 2.8H8v.33c0 2.02 1.8 3.66 4 3.66s4-1.64 4-3.66v-.34h3.36a1.63 1.63 0 001.16-2.8z" fill="#768298"/><rect x="12.5" y=".68" width="12" height="12" rx="6" fill="#FF3332"/><path d="M18.44 9.76c-.3 0-.58-.05-.83-.14A1.74 1.74 0 0116.43 8h.65c.01.17.05.33.11.48a1.17 1.17 0 00.68.63c.17.06.36.09.58.09.46 0 .79-.1 1-.3.2-.2.3-.47.3-.8 0-.75-.4-1.12-1.2-1.12h-.43V6.4h.4c.37 0 .64-.09.81-.25.18-.17.26-.42.26-.73 0-.27-.09-.5-.26-.68-.17-.19-.43-.28-.78-.28a1.18 1.18 0 00-1.26 1.08h-.61a1.67 1.67 0 01.54-1.16 1.97 1.97 0 011.33-.49c.27 0 .52.04.73.13.21.08.39.2.53.34.15.13.27.3.34.48.08.18.12.37.12.56 0 .33-.09.6-.26.8-.17.2-.38.34-.64.45.33.1.6.25.8.49.2.23.3.55.3.95 0 .26-.05.5-.15.7-.1.2-.24.38-.43.53-.17.14-.39.25-.64.32-.25.08-.52.12-.81.12z" fill="#fff"/><rect x="12.5" y=".68" width="12" height="12" rx="6" stroke="#fff"/></svg>