<svg width="136" height="31" fill="none" xmlns="http://www.w3.org/2000/svg"><g clip-path="url(#clip0)"><path fill-rule="evenodd" clip-rule="evenodd" d="M14.8.09a15.08 15.08 0 0114.9 19.05 2.52 2.52 0 11-4.86-1.33 10.04 10.04 0 10-9.83 7.39 2.52 2.52 0 01-.07 5.04A15.08 15.08 0 016.1 3.1l1.52 2.01L6.1 3.11A15.08 15.08 0 0114.8.09z" fill="#121920"/><path d="M26.5 24.97a3.82 3.82 0 11-7.64 0 3.82 3.82 0 017.64 0z" fill="#F95A59"/><path fill-rule="evenodd" clip-rule="evenodd" d="M60.83 24.12h-4.98l-.7-.92c-.98.38-1.84.65-2.6.86-.76.17-1.57.27-2.49.27-3.03 0-5.41-.75-7.09-2.22-1.79-1.51-2.65-3.84-2.65-6.82 0-3.03.81-5.35 2.38-6.92 1.62-1.57 4.06-2.39 7.36-2.39 3.2 0 5.63.87 7.3 2.55a7.63 7.63 0 012.17 5.63c0 1.68-.05 2.92-.21 3.68a8.17 8.17 0 01-1.52 3.35l3.03 2.93zm-5.68-8.99a6.8 6.8 0 00-1.03-3.95c-.87-1.3-2.27-1.95-4.11-1.95-1.73 0-3.09.49-3.95 1.52-.87.97-1.3 2.43-1.3 4.33 0 2.1.48 3.68 1.51 4.65.92.87 2.28 1.3 4.06 1.3 1.63 0 2.82-.49 3.63-1.46.81-1.03 1.19-2.49 1.19-4.44zM79.62 18.54c0 1.57-.55 2.87-1.57 3.95a5.14 5.14 0 01-3.96 1.57H61.64v-3.19h10.34c.7 0 1.3-.16 1.74-.49.54-.38.8-.86.8-1.51 0-1.52-1.08-2.28-3.19-2.28h-5.2a6.09 6.09 0 01-3.94-1.4 4.36 4.36 0 01-1.68-3.58c0-1.57.54-2.86 1.68-3.84a6.31 6.31 0 014.38-1.46h11.96v3.03h-10.6c-.5 0-.98.22-1.41.6-.54.37-.76.86-.76 1.4 0 .6.22 1.14.7 1.52.49.43 1.03.6 1.68.6h5.74c1.78 0 3.2.48 4.22 1.4a4.7 4.7 0 011.52 3.68zM100.08 15.13c0 3.47-.98 5.9-2.87 7.42-1.57 1.19-3.85 1.78-6.77 1.78-3.3 0-5.74-.7-7.3-2.05-1.74-1.52-2.6-3.95-2.6-7.31 0-2.76.75-4.93 2.32-6.44 1.68-1.68 4.17-2.5 7.53-2.5 3.68 0 6.22.82 7.74 2.39 1.3 1.4 1.95 3.63 1.95 6.71zm-4.55-.1c0-1.74-.43-3.15-1.25-4.17-.92-1.14-2.32-1.74-4.11-1.74-1.79 0-3.14.6-4.06 1.84a6.62 6.62 0 00-1.14 4.01c0 1.9.33 3.3.92 4.22.87 1.25 2.39 1.9 4.71 1.9 1.95 0 3.3-.6 4.06-1.84.6-.87.87-2.33.87-4.23zM117.88 16.65h-12.23V24h-4.38V13.13c0-.65.1-1.4.38-2.22a5.74 5.74 0 012.75-3.3c1.57-.87 4.17-1.3 7.74-1.3h22.9v2.98h-6.6V24h-4.12V9.29c-4.22 0-8.22-.06-12.44-.06-1.63 0-2.77.11-3.41.27-1.14.27-1.9.92-2.39 1.84-.38.7-.54 1.46-.54 2.33h12.34v2.98z" fill="#F95A59"/></g><defs><clipPath id="clip0"><path fill="#fff" d="M0 0h135.04v30.32H0z"/></clipPath></defs></svg>